<svg width="25" height="25" viewBox="0 0 25 25" fill="none" xmlns="http://www.w3.org/2000/svg">
<path d="M11.4583 19.7917V9.375H4.16659V19.7917H11.4583ZM11.4583 7.29167V4.16667C11.4583 3.59137 11.9246 3.125 12.4999 3.125H21.8749C22.4502 3.125 22.9166 3.59137 22.9166 4.16667V20.8333C22.9166 21.4086 22.4502 21.875 21.8749 21.875H3.12492C2.54963 21.875 2.08325 21.4086 2.08325 20.8333V8.33333C2.08325 7.75804 2.54963 7.29167 3.12492 7.29167H11.4583ZM13.5416 5.20833V19.7917H20.8333V5.20833H13.5416ZM5.20825 16.6667H10.4166V18.75H5.20825V16.6667ZM14.5833 16.6667H19.7916V18.75H14.5833V16.6667ZM14.5833 13.5417H19.7916V15.625H14.5833V13.5417ZM14.5833 10.4167H19.7916V12.5H14.5833V10.4167ZM5.20825 13.5417H10.4166V15.625H5.20825V13.5417Z" fill="#5F8638"/>
</svg>
