<svg width="39" height="39" viewBox="0 0 39 39" fill="none" xmlns="http://www.w3.org/2000/svg">
<path d="M30.8262 36.9688H8.07617C1.98242 36.9688 1.98242 33.5887 1.98242 30.875V29.25C1.98242 27.69 3.26617 26.4062 4.82617 26.4062H34.0762C35.6362 26.4062 36.9199 27.69 36.9199 29.25V30.875C36.9199 33.5887 36.9199 36.9688 30.8262 36.9688ZM4.82617 28.8438C4.59867 28.8438 4.41992 29.0225 4.41992 29.25V30.875C4.41992 33.54 4.41992 34.5312 8.07617 34.5312H30.8262C34.4824 34.5312 34.4824 33.54 34.4824 30.875V29.25C34.4824 29.0225 34.3037 28.8438 34.0762 28.8438H4.82617Z" fill="#618340"/>
<path d="M33.6697 28.8438H5.31348C4.64723 28.8438 4.09473 28.2912 4.09473 27.625V21.125C4.09473 14.4625 8.82348 8.6125 15.3235 7.23125C16.2822 7.02 17.2897 6.90625 18.3135 6.90625H20.6697C21.7097 6.90625 22.7172 7.02 23.676 7.23125C30.176 8.62875 34.8885 14.4787 34.8885 21.125V27.625C34.8885 28.2912 34.3522 28.8438 33.6697 28.8438ZM6.53223 26.4062H32.451V21.125C32.451 15.6162 28.551 10.7737 23.156 9.60375C22.3597 9.425 21.531 9.34375 20.6697 9.34375H18.3135C17.4685 9.34375 16.6397 9.425 15.8435 9.60375C10.4485 10.7575 6.53223 15.6 6.53223 21.125V26.4062Z" fill="#618340"/>
<path d="M15.5838 9.63625C15.0475 9.63625 14.56 9.27875 14.4137 8.7425C14.2837 8.27125 14.2188 7.8 14.2188 7.3125C14.2188 4.40375 16.5913 2.03125 19.5 2.03125C22.4087 2.03125 24.7812 4.40375 24.7812 7.3125C24.7812 7.8 24.7163 8.27125 24.5863 8.7425C24.4238 9.36 23.8063 9.75 23.1562 9.60375C22.36 9.425 21.5313 9.34375 20.67 9.34375H18.3138C17.4688 9.34375 16.64 9.425 15.8438 9.60375C15.7625 9.62 15.6813 9.63625 15.5838 9.63625ZM18.3138 6.90625H20.67C21.2225 6.90625 21.7912 6.93875 22.3275 7.00375C22.1812 5.57375 20.9625 4.46875 19.5 4.46875C18.0375 4.46875 16.835 5.57375 16.6725 7.00375C17.225 6.93875 17.7613 6.90625 18.3138 6.90625Z" fill="#618340"/>
<path d="M24.375 19.0938H14.625C13.9588 19.0938 13.4062 18.5412 13.4062 17.875C13.4062 17.2088 13.9588 16.6562 14.625 16.6562H24.375C25.0412 16.6562 25.5938 17.2088 25.5938 17.875C25.5938 18.5412 25.0412 19.0938 24.375 19.0938Z" fill="#618340"/>
</svg>
