<svg width="200" height="50" viewBox="0 0 200 50" fill="none" xmlns="http://www.w3.org/2000/svg">
<g filter="url(#filter0_di_64_1270)">
<path d="M14.5304 11.2833C14.6906 10.8457 15.3094 10.8457 15.4696 11.2833L18.5347 19.6604C18.6045 19.8513 18.7829 19.9809 18.9859 19.9883L27.9002 20.3147C28.3659 20.3318 28.5571 20.9204 28.1904 21.2079L21.1705 26.7117C21.0106 26.837 20.9425 27.0467 20.9981 27.2422L23.4423 35.821C23.57 36.2692 23.0693 36.6329 22.6826 36.373L15.2789 31.3974C15.1102 31.2841 14.8898 31.2841 14.7211 31.3974L7.31741 36.373C6.93067 36.6329 6.42998 36.2692 6.55766 35.821L9.00187 27.2422C9.05755 27.0467 8.98941 26.837 8.8295 26.7117L1.80956 21.2079C1.44286 20.9204 1.63411 20.3318 2.09976 20.3147L11.0141 19.9883C11.2171 19.9809 11.3955 19.8513 11.4653 19.6604L14.5304 11.2833Z" fill="#F5BF03"/>
<path d="M14.7652 11.3692C14.8453 11.1504 15.1547 11.1504 15.2348 11.3692L18.2999 19.7463C18.4046 20.0326 18.6722 20.227 18.9768 20.2381L27.8911 20.5646C28.1239 20.5731 28.2195 20.8674 28.0362 21.0111L21.0162 26.5149C20.7764 26.703 20.6742 27.0175 20.7577 27.3107L23.2019 35.8895C23.2658 36.1136 23.0154 36.2955 22.822 36.1655L15.4183 31.1899C15.1654 31.0199 14.8346 31.0199 14.5817 31.1899L7.17797 36.1655C6.9846 36.2955 6.73425 36.1136 6.79809 35.8895L9.2423 27.3107C9.32582 27.0175 9.22362 26.703 8.98375 26.5149L1.96381 21.0111C1.78046 20.8674 1.87608 20.5731 2.10891 20.5646L11.0232 20.2381C11.3278 20.227 11.5954 20.0326 11.7001 19.7463L14.7652 11.3692Z" stroke="#B5993A" stroke-width="0.5"/>
</g>
<g filter="url(#filter1_di_64_1270)">
<path d="M54.5304 11.2833C54.6906 10.8457 55.3094 10.8457 55.4696 11.2833L58.5347 19.6604C58.6045 19.8513 58.7829 19.9809 58.9859 19.9883L67.9002 20.3147C68.3659 20.3318 68.5571 20.9204 68.1904 21.2079L61.1705 26.7117C61.0106 26.837 60.9425 27.0467 60.9981 27.2422L63.4423 35.821C63.57 36.2692 63.0693 36.6329 62.6826 36.373L55.2789 31.3974C55.1102 31.2841 54.8898 31.2841 54.7211 31.3974L47.3174 36.373C46.9307 36.6329 46.43 36.2692 46.5577 35.821L49.0019 27.2422C49.0575 27.0467 48.9894 26.837 48.8295 26.7117L41.8096 21.2079C41.4429 20.9204 41.6341 20.3318 42.0998 20.3147L51.0141 19.9883C51.2171 19.9809 51.3955 19.8513 51.4653 19.6604L54.5304 11.2833Z" fill="#F5BF03"/>
<path d="M54.7652 11.3692C54.8453 11.1504 55.1547 11.1504 55.2348 11.3692L58.2999 19.7463C58.4046 20.0326 58.6722 20.227 58.9768 20.2381L67.8911 20.5646C68.1239 20.5731 68.2195 20.8674 68.0362 21.0111L61.0162 26.5149C60.7764 26.703 60.6742 27.0175 60.7577 27.3107L63.2019 35.8895C63.2658 36.1136 63.0154 36.2955 62.822 36.1655L55.4183 31.1899C55.1654 31.0199 54.8346 31.0199 54.5817 31.1899L47.178 36.1655C46.9846 36.2955 46.7343 36.1136 46.7981 35.8895L49.2423 27.3107C49.3258 27.0175 49.2236 26.703 48.9838 26.5149L41.9638 21.0111C41.7805 20.8674 41.8761 20.5731 42.1089 20.5646L51.0232 20.2381C51.3278 20.227 51.5954 20.0326 51.7001 19.7463L54.7652 11.3692Z" stroke="#B5993A" stroke-width="0.5"/>
</g>
<g filter="url(#filter2_di_64_1270)">
<path d="M94.5304 11.2833C94.6906 10.8457 95.3094 10.8457 95.4696 11.2833L98.5347 19.6604C98.6045 19.8513 98.7829 19.9809 98.9859 19.9883L107.9 20.3147C108.366 20.3318 108.557 20.9204 108.19 21.2079L101.17 26.7117C101.011 26.837 100.942 27.0467 100.998 27.2422L103.442 35.821C103.57 36.2692 103.069 36.6329 102.683 36.373L95.2789 31.3974C95.1102 31.2841 94.8898 31.2841 94.7211 31.3974L87.3174 36.373C86.9307 36.6329 86.43 36.2692 86.5577 35.821L89.0019 27.2422C89.0575 27.0467 88.9894 26.837 88.8295 26.7117L81.8096 21.2079C81.4429 20.9204 81.6341 20.3318 82.0998 20.3147L91.0141 19.9883C91.2171 19.9809 91.3955 19.8513 91.4653 19.6604L94.5304 11.2833Z" fill="#F5BF03"/>
<path d="M94.7652 11.3692C94.8453 11.1504 95.1547 11.1504 95.2348 11.3692L98.2999 19.7463C98.4046 20.0326 98.6722 20.227 98.9768 20.2381L107.891 20.5646C108.124 20.5731 108.22 20.8674 108.036 21.0111L101.016 26.5149C100.776 26.703 100.674 27.0175 100.758 27.3107L103.202 35.8895C103.266 36.1136 103.015 36.2955 102.822 36.1655L95.4183 31.1899C95.1654 31.0199 94.8346 31.0199 94.5817 31.1899L87.178 36.1655C86.9846 36.2955 86.7343 36.1136 86.7981 35.8895L89.2423 27.3107C89.3258 27.0175 89.2236 26.703 88.9838 26.5149L81.9638 21.0111C81.7805 20.8674 81.8761 20.5731 82.1089 20.5646L91.0232 20.2381C91.3278 20.227 91.5954 20.0326 91.7001 19.7463L94.7652 11.3692Z" stroke="#B5993A" stroke-width="0.5"/>
</g>
<g filter="url(#filter3_di_64_1270)">
<path d="M134.53 11.2833C134.691 10.8457 135.309 10.8457 135.47 11.2833L138.535 19.6604C138.605 19.8513 138.783 19.9809 138.986 19.9883L147.9 20.3147C148.366 20.3318 148.557 20.9204 148.19 21.2079L141.17 26.7117C141.011 26.837 140.942 27.0467 140.998 27.2422L143.442 35.821C143.57 36.2692 143.069 36.6329 142.683 36.373L135.279 31.3974C135.11 31.2841 134.89 31.2841 134.721 31.3974L127.317 36.373C126.931 36.6329 126.43 36.2692 126.558 35.821L129.002 27.2422C129.058 27.0467 128.989 26.837 128.83 26.7117L121.81 21.2079C121.443 20.9204 121.634 20.3318 122.1 20.3147L131.014 19.9883C131.217 19.9809 131.395 19.8513 131.465 19.6604L134.53 11.2833Z" fill="#F5BF03"/>
<path d="M134.765 11.3692C134.845 11.1504 135.155 11.1504 135.235 11.3692L138.3 19.7463C138.405 20.0326 138.672 20.227 138.977 20.2381L147.891 20.5646C148.124 20.5731 148.22 20.8674 148.036 21.0111L141.016 26.5149C140.776 26.703 140.674 27.0175 140.758 27.3107L143.202 35.8895C143.266 36.1136 143.015 36.2955 142.822 36.1655L135.418 31.1899C135.165 31.0199 134.835 31.0199 134.582 31.1899L127.178 36.1655C126.985 36.2955 126.734 36.1136 126.798 35.8895L129.242 27.3107C129.326 27.0175 129.224 26.703 128.984 26.5149L121.964 21.0111C121.78 20.8674 121.876 20.5731 122.109 20.5646L131.023 20.2381C131.328 20.227 131.595 20.0326 131.7 19.7463L134.765 11.3692Z" stroke="#B5993A" stroke-width="0.5"/>
</g>
<g filter="url(#filter4_d_64_1270)">
<path d="M174.53 11.2833C174.691 10.8457 175.309 10.8457 175.47 11.2833L178.535 19.6604C178.605 19.8513 178.783 19.9809 178.986 19.9883L187.9 20.3147C188.366 20.3318 188.557 20.9204 188.19 21.2079L181.17 26.7117C181.011 26.837 180.942 27.0467 180.998 27.2422L183.442 35.821C183.57 36.2692 183.069 36.6329 182.683 36.373L175.279 31.3974C175.11 31.2841 174.89 31.2841 174.721 31.3974L167.317 36.373C166.931 36.6329 166.43 36.2692 166.558 35.821L169.002 27.2422C169.058 27.0467 168.989 26.837 168.83 26.7117L161.81 21.2079C161.443 20.9204 161.634 20.3318 162.1 20.3147L171.014 19.9883C171.217 19.9809 171.395 19.8513 171.465 19.6604L174.53 11.2833Z" fill="white"/>
<path d="M174.765 11.3692C174.845 11.1504 175.155 11.1504 175.235 11.3692L178.3 19.7463C178.405 20.0326 178.672 20.227 178.977 20.2381L187.891 20.5646C188.124 20.5731 188.22 20.8674 188.036 21.0111L181.016 26.5149C180.776 26.703 180.674 27.0175 180.758 27.3107L183.202 35.8895C183.266 36.1136 183.015 36.2955 182.822 36.1655L175.418 31.1899C175.165 31.0199 174.835 31.0199 174.582 31.1899L167.178 36.1655C166.985 36.2955 166.734 36.1136 166.798 35.8895L169.242 27.3107C169.326 27.0175 169.224 26.703 168.984 26.5149L161.964 21.0111C161.78 20.8674 161.876 20.5731 162.109 20.5646L171.023 20.2381C171.328 20.227 171.595 20.0326 171.7 19.7463L174.765 11.3692Z" stroke="#777777" stroke-width="0.5"/>
</g>
<defs>
<filter id="filter0_di_64_1270" x="1.11719" y="10.4551" width="28.7656" height="27.5049" filterUnits="userSpaceOnUse" color-interpolation-filters="sRGB">
<feFlood flood-opacity="0" result="BackgroundImageFix"/>
<feColorMatrix in="SourceAlpha" type="matrix" values="0 0 0 0 0 0 0 0 0 0 0 0 0 0 0 0 0 0 127 0" result="hardAlpha"/>
<feOffset dx="0.5" dy="0.5"/>
<feGaussianBlur stdDeviation="0.5"/>
<feComposite in2="hardAlpha" operator="out"/>
<feColorMatrix type="matrix" values="0 0 0 0 0 0 0 0 0 0 0 0 0 0 0 0 0 0 0.4 0"/>
<feBlend mode="normal" in2="BackgroundImageFix" result="effect1_dropShadow_64_1270"/>
<feBlend mode="normal" in="SourceGraphic" in2="effect1_dropShadow_64_1270" result="shape"/>
<feColorMatrix in="SourceAlpha" type="matrix" values="0 0 0 0 0 0 0 0 0 0 0 0 0 0 0 0 0 0 127 0" result="hardAlpha"/>
<feOffset dx="1" dy="1"/>
<feGaussianBlur stdDeviation="0.5"/>
<feComposite in2="hardAlpha" operator="arithmetic" k2="-1" k3="1"/>
<feColorMatrix type="matrix" values="0 0 0 0 1 0 0 0 0 1 0 0 0 0 1 0 0 0 0.6 0"/>
<feBlend mode="normal" in2="shape" result="effect2_innerShadow_64_1270"/>
</filter>
<filter id="filter1_di_64_1270" x="41.1172" y="10.4551" width="28.7656" height="27.5049" filterUnits="userSpaceOnUse" color-interpolation-filters="sRGB">
<feFlood flood-opacity="0" result="BackgroundImageFix"/>
<feColorMatrix in="SourceAlpha" type="matrix" values="0 0 0 0 0 0 0 0 0 0 0 0 0 0 0 0 0 0 127 0" result="hardAlpha"/>
<feOffset dx="0.5" dy="0.5"/>
<feGaussianBlur stdDeviation="0.5"/>
<feComposite in2="hardAlpha" operator="out"/>
<feColorMatrix type="matrix" values="0 0 0 0 0 0 0 0 0 0 0 0 0 0 0 0 0 0 0.4 0"/>
<feBlend mode="normal" in2="BackgroundImageFix" result="effect1_dropShadow_64_1270"/>
<feBlend mode="normal" in="SourceGraphic" in2="effect1_dropShadow_64_1270" result="shape"/>
<feColorMatrix in="SourceAlpha" type="matrix" values="0 0 0 0 0 0 0 0 0 0 0 0 0 0 0 0 0 0 127 0" result="hardAlpha"/>
<feOffset dx="1" dy="1"/>
<feGaussianBlur stdDeviation="0.5"/>
<feComposite in2="hardAlpha" operator="arithmetic" k2="-1" k3="1"/>
<feColorMatrix type="matrix" values="0 0 0 0 1 0 0 0 0 1 0 0 0 0 1 0 0 0 0.6 0"/>
<feBlend mode="normal" in2="shape" result="effect2_innerShadow_64_1270"/>
</filter>
<filter id="filter2_di_64_1270" x="81.1172" y="10.4551" width="28.7656" height="27.5049" filterUnits="userSpaceOnUse" color-interpolation-filters="sRGB">
<feFlood flood-opacity="0" result="BackgroundImageFix"/>
<feColorMatrix in="SourceAlpha" type="matrix" values="0 0 0 0 0 0 0 0 0 0 0 0 0 0 0 0 0 0 127 0" result="hardAlpha"/>
<feOffset dx="0.5" dy="0.5"/>
<feGaussianBlur stdDeviation="0.5"/>
<feComposite in2="hardAlpha" operator="out"/>
<feColorMatrix type="matrix" values="0 0 0 0 0 0 0 0 0 0 0 0 0 0 0 0 0 0 0.4 0"/>
<feBlend mode="normal" in2="BackgroundImageFix" result="effect1_dropShadow_64_1270"/>
<feBlend mode="normal" in="SourceGraphic" in2="effect1_dropShadow_64_1270" result="shape"/>
<feColorMatrix in="SourceAlpha" type="matrix" values="0 0 0 0 0 0 0 0 0 0 0 0 0 0 0 0 0 0 127 0" result="hardAlpha"/>
<feOffset dx="1" dy="1"/>
<feGaussianBlur stdDeviation="0.5"/>
<feComposite in2="hardAlpha" operator="arithmetic" k2="-1" k3="1"/>
<feColorMatrix type="matrix" values="0 0 0 0 1 0 0 0 0 1 0 0 0 0 1 0 0 0 0.6 0"/>
<feBlend mode="normal" in2="shape" result="effect2_innerShadow_64_1270"/>
</filter>
<filter id="filter3_di_64_1270" x="121.117" y="10.4551" width="28.7656" height="27.5049" filterUnits="userSpaceOnUse" color-interpolation-filters="sRGB">
<feFlood flood-opacity="0" result="BackgroundImageFix"/>
<feColorMatrix in="SourceAlpha" type="matrix" values="0 0 0 0 0 0 0 0 0 0 0 0 0 0 0 0 0 0 127 0" result="hardAlpha"/>
<feOffset dx="0.5" dy="0.5"/>
<feGaussianBlur stdDeviation="0.5"/>
<feComposite in2="hardAlpha" operator="out"/>
<feColorMatrix type="matrix" values="0 0 0 0 0 0 0 0 0 0 0 0 0 0 0 0 0 0 0.4 0"/>
<feBlend mode="normal" in2="BackgroundImageFix" result="effect1_dropShadow_64_1270"/>
<feBlend mode="normal" in="SourceGraphic" in2="effect1_dropShadow_64_1270" result="shape"/>
<feColorMatrix in="SourceAlpha" type="matrix" values="0 0 0 0 0 0 0 0 0 0 0 0 0 0 0 0 0 0 127 0" result="hardAlpha"/>
<feOffset dx="1" dy="1"/>
<feGaussianBlur stdDeviation="0.5"/>
<feComposite in2="hardAlpha" operator="arithmetic" k2="-1" k3="1"/>
<feColorMatrix type="matrix" values="0 0 0 0 1 0 0 0 0 1 0 0 0 0 1 0 0 0 0.6 0"/>
<feBlend mode="normal" in2="shape" result="effect2_innerShadow_64_1270"/>
</filter>
<filter id="filter4_d_64_1270" x="161.117" y="10.4551" width="28.7656" height="27.5049" filterUnits="userSpaceOnUse" color-interpolation-filters="sRGB">
<feFlood flood-opacity="0" result="BackgroundImageFix"/>
<feColorMatrix in="SourceAlpha" type="matrix" values="0 0 0 0 0 0 0 0 0 0 0 0 0 0 0 0 0 0 127 0" result="hardAlpha"/>
<feOffset dx="0.5" dy="0.5"/>
<feGaussianBlur stdDeviation="0.5"/>
<feComposite in2="hardAlpha" operator="out"/>
<feColorMatrix type="matrix" values="0 0 0 0 0 0 0 0 0 0 0 0 0 0 0 0 0 0 0.2 0"/>
<feBlend mode="normal" in2="BackgroundImageFix" result="effect1_dropShadow_64_1270"/>
<feBlend mode="normal" in="SourceGraphic" in2="effect1_dropShadow_64_1270" result="shape"/>
</filter>
</defs>
</svg>
